<svg xmlns="http://www.w3.org/2000/svg" shape-rendering="geometricPrecision" text-rendering="geometricPrecision" image-rendering="optimizeQuality" fill-rule="evenodd" clip-rule="evenodd" viewBox="0 0 512 390.24"><path fill="#F09418" d="M103.98 113.12c-16.16 2.01-26.04-6.32-26.49-29.94 9.39.63 32.74 5.9 26.49 29.94z"/><path fill="#FFD203" d="M132.54 150.86c-10.69 11.01-18.23 13.26-36.64-2.23 13.02-6.46 24.49-15.7 36.64 2.23zm-17.21-19.57c-9.97 10.25-16.98 12.35-34.11-2.09 12.09-6.03 22.78-14.61 34.11 2.09zm87.08 86.09c15.54-11.69 19.59-20.79 3.05-46.39-10.22 15.3-23.65 28.25-3.05 46.39zm-22.28-25.29c15.54-11.69 19.59-20.8 3.05-46.39-10.21 15.31-23.63 28.26-3.05 46.39zm-21.85-24.75c13.83-10.39 17.43-18.5 2.72-41.26-9.09 13.61-21.04 25.12-2.72 41.26zm-19.45-22.02c12.27-9.21 15.46-16.41 2.42-36.62-8.06 12.09-18.67 22.3-2.42 36.62zm-17.24-19.54c11.43-8.59 14.4-15.28 2.24-34.1-7.51 11.23-17.39 20.77-2.24 34.1zm74.38 97.27c-13.56 13.94-23.1 16.8-46.4-2.83 16.47-8.21 31.02-19.91 46.4 2.83zm-22.28-25.29c-13.56 13.93-23.1 16.8-46.4-2.84 16.48-8.19 31.04-19.89 46.4 2.84zm-21.77-24.82c-12.05 12.4-20.55 14.95-41.27-2.51 14.65-7.3 27.57-17.7 41.27 2.51z"/><path fill="#262626" d="M364.32 380.54c-14.05 2.12-29.34 3.28-45.35 3.28-68.68 0-124.38-21.36-124.38-47.76 0-5.18 2.16-10.15 6.13-14.8v-25.9c-4.72-5.18-7.28-12.27-7.28-16.55 0-4.28.59-5.5 1.72-8.15 1.18 1.21 2.46 2.4 3.87 3.53 19.86 16.08 64.62 26.11 111.13 27.54 9.4.3 18.88.24 28.25-.19-.72 3.82-1.11 7.63-1.11 11.45 0 13.42 2.51 26.11 7.54 38.05 4.52 10.74 11.02 20.58 19.48 29.5z"/><path fill="#262626" d="M442.35 127.97c1.25 2.62 1.96 4.32 2.1 7.76a21.943 21.943 0 0 0-10.41-1c3.04-2.1 5.8-4.36 8.31-6.76zM340.72 292.48c-10.02.53-20.2.63-30.31.32-44.72-1.37-87.39-10.68-105.73-25.55-1.78-1.44-3.28-2.9-4.5-4.37.19-.22.35-.41.54-.6V153.59c-4.72-5.16-7.28-12.22-7.28-16.56 0-4.34.62-5.68 1.84-8.43 1.15 1.18 2.41 2.31 3.75 3.4 19.86 16.09 64.62 26.11 111.13 27.55 40.1 1.24 81.75-3.9 110.08-17.03a21.936 21.936 0 0 0-4.47 9.08c-6.73 29.25-25.85 57.78-42.75 83-13.86 20.68-26.46 39.5-32.3 57.88z"/><path fill="#262626" d="M318.69 0c33.3 0 63.6 5.12 85.65 13.4 23.92 8.97 38.7 21.99 38.7 36.89 0 5.34-1.91 10.43-5.44 15.18v54.54c-2.81 2.97-6.15 5.71-9.99 8.24-25.9 17.09-72.4 23.74-117.23 22.37-44.69-1.38-87.36-10.68-105.7-25.52-1.69-1.37-3.15-2.75-4.34-4.19l.38-.4V66.72c-4.16-5.09-6.41-10.62-6.41-16.43 0-14.93 14.81-27.92 38.7-36.89C255.1 5.12 285.4 0 318.69 0z"/><path fill="#DE9C2D" d="M437.22 156.51c8.9 38.21 40.13 74.99 59.98 110.59 33.67 60.38 8.31 123.14-59.98 123.14-74.44 0-92.67-68.15-55.7-130.38 19.81-33.36 47.5-67.77 55.7-103.35zm-51.6 145c-.4-4.33 2.84-8.18 7.16-8.58 4.33-.41 8.17 2.84 8.58 7.16 1.01 10.47 3.31 20.19 7.7 28.5 4.25 8.03 10.54 14.99 19.65 20.32 14.83 8.75-10.13 32.05-33.63-12.96-5.41-10.27-8.24-21.95-9.46-34.44z"/><path d="M258.31 45.67c8.4 0 15.21 2.37 15.21 5.31 0 2.93-6.81 5.31-15.21 5.31-8.4 0-15.21-2.38-15.21-5.31 0-2.91 6.81-5.31 15.21-5.31z"/><path fill="#fff" d="M398.84 25.02c-20.37-7.65-48.69-12.37-80.15-12.37-31.45 0-59.78 4.72-80.15 12.37-18.52 6.93-29.99 15.93-29.99 25.27 0 9.37 11.47 18.34 29.99 25.27 20.37 7.62 48.7 12.37 80.15 12.37 31.46 0 59.78-4.72 80.15-12.37 18.52-6.93 29.99-15.93 29.99-25.27s-11.47-18.34-29.99-25.27z"/><path fill="#262626" d="M254.86 40.87c12.41 0 22.45 4.52 22.45 10.11 0 5.58-10.04 10.1-22.45 10.1-12.4 0-22.44-4.52-22.44-10.1 0-5.59 10.04-10.11 22.44-10.11z"/><path fill="#FAC900" d="m82.39 299.09 16.69-58.76c.6-2.15 2.56-3.56 4.69-3.56h71.19c2.38 0 4.34 1.7 4.79 3.92l17.14 58.68c.75 2.58-.73 5.28-3.31 6.03-.46.13-.91.19-1.36.19v.02H86.99a4.88 4.88 0 0 1-4.88-4.88c0-.58.09-1.13.28-1.64zm-8.67-100.34-.68.04c.35 5.59-1.44 10.61-5.35 15.05-3.91 4.45-8.68 6.83-14.27 7.18l.04.69c5.59-.35 10.61 1.44 15.06 5.38 4.44 3.94 6.84 8.69 7.19 14.25l.69-.04c-.36-5.59 1.43-10.61 5.34-15.05 3.91-4.44 8.68-6.83 14.27-7.18l-.04-.69c-5.59.36-10.61-1.44-15.05-5.35-4.44-3.93-6.84-8.68-7.2-14.28zM18.68 374.56l16.69-58.75c.6-2.15 2.56-3.56 4.69-3.56h71.19c2.38 0 4.34 1.69 4.79 3.91l17.14 58.69c.76 2.58-.73 5.27-3.32 6.02-.45.14-.9.19-1.35.19v.02H23.28c-2.7 0-4.88-2.18-4.88-4.88 0-.56.09-1.11.28-1.64zm127.3 0 16.69-58.75c.6-2.15 2.56-3.56 4.69-3.56h71.19c2.38 0 4.33 1.69 4.79 3.91l17.14 58.69a4.85 4.85 0 0 1-3.32 6.02c-.45.14-.9.19-1.35.19v.02H150.57c-2.69 0-4.87-2.18-4.87-4.88 0-.56.09-1.11.28-1.64z"/><path fill="#E6BD00" d="m82.27 299.23 16.69-58.76a4.887 4.887 0 0 1 4.7-3.56h71.18c2.38 0 4.34 1.69 4.79 3.92l.27.91h-68.82c-2.13 0-4.09 1.42-4.69 3.56l-16.7 58.76a4.67 4.67 0 0 0-.28 1.64v.04h-2.54c-2.7 0-4.88-2.18-4.88-4.88 0-.58.09-1.13.28-1.63z"/><path fill="#E3B600" d="m18.68 374.56 16.69-58.76c.6-2.14 2.56-3.56 4.69-3.56h71.19c2.38 0 4.34 1.7 4.79 3.92l.27.92H47.49c-2.14 0-4.09 1.41-4.7 3.56L26.1 379.4a4.67 4.67 0 0 0-.28 1.64v.04h-2.54c-2.7 0-4.88-2.18-4.88-4.88 0-.58.09-1.13.28-1.64z"/><path fill="#E6BD00" d="m18.68 374.56 16.69-58.76c.6-2.14 2.56-3.56 4.69-3.56h71.19c2.38 0 4.34 1.7 4.79 3.92l.27.92H47.49c-2.14 0-4.09 1.41-4.7 3.56L26.1 379.4a4.67 4.67 0 0 0-.28 1.64v.04h-2.54c-2.7 0-4.88-2.18-4.88-4.88 0-.58.09-1.13.28-1.64zm127.3 0 16.69-58.76c.6-2.14 2.56-3.56 4.69-3.56h71.19c2.37 0 4.33 1.7 4.79 3.92l.27.92h-68.83c-2.13 0-4.08 1.41-4.69 3.56L153.4 379.4a4.67 4.67 0 0 0-.28 1.64v.04h-2.55c-2.69 0-4.87-2.18-4.87-4.88 0-.58.09-1.13.28-1.64z"/><path fill="#FAC900" d="m21.28 270.23-.68.01c.1 5.6-1.92 10.53-6.02 14.79-4.11 4.26-8.98 6.43-14.58 6.53l.01.69c5.6-.1 10.53 1.92 14.8 6.05 4.26 4.13 6.44 8.99 6.54 14.56l.69-.01c-.1-5.6 1.92-10.54 6.02-14.8 4.11-4.26 8.97-6.42 14.58-6.53l-.01-.68c-5.61.1-10.54-1.92-14.8-6.02-4.26-4.14-6.44-8.99-6.55-14.59z"/></svg>