<?xml version="1.0" encoding="utf-8"?>
<!-- Svg Vector Icons : http://www.onlinewebfonts.com/icon -->
<!DOCTYPE svg PUBLIC "-//W3C//DTD SVG 1.1//EN" "http://www.w3.org/Graphics/SVG/1.1/DTD/svg11.dtd">
<svg version="1.1" xmlns="http://www.w3.org/2000/svg" xmlns:xlink="http://www.w3.org/1999/xlink" x="0px" y="0px" viewBox="0 0 1000 1000" enable-background="new 0 0 1000 1000" xml:space="preserve">
<metadata> Svg Vector Icons : http://www.onlinewebfonts.com/icon </metadata>
<g><path d="M129.8,822.4h751.2V877H129.8V822.4z"/><path d="M990,756H10V123h980V756z M959,150.6H41v574.8H959V150.6z"/><path d="M373.7,594.9H201v-321h165.4v36.9H242.5v102.8h114.8v36.7H242.5v108h131.2L373.7,594.9L373.7,594.9z"/><path d="M629.2,310.8h-92.6v284.1h-41.7V310.8h-92.2v-36.9h226.5L629.2,310.8L629.2,310.8z"/><path d="M843.9,310.8H720v107.4h114.8v36.5H720v140.3h-41.5v-321h165.4V310.8z"/></g>
</svg>